<svg width="113" height="30" viewBox="0 0 113 30" fill="none" xmlns="http://www.w3.org/2000/svg">
<g clip-path="url(#clip0_131_488)">
<path d="M4.14107 26.0341V12.1447C0.46081 11.6187 0.546188 15.8408 0.546188 15.8408V29.7301C4.22644 30.2517 4.14107 26.0296 4.14107 26.0296V26.0341Z" fill="url(#paint0_linear_131_488)"/>
<path d="M8.60335 19.4799V5.59053C4.92309 5.06445 5.00847 9.28655 5.00847 9.28655V23.1759C8.68872 23.6975 8.60335 19.4754 8.60335 19.4754V19.4799Z" fill="url(#paint1_linear_131_488)"/>
<path d="M13.1861 13.9347V0.0453742C9.50585 -0.480703 9.59123 3.7414 9.59123 3.7414V17.6307C13.2715 18.1523 13.1861 13.9302 13.1861 13.9302V13.9347Z" fill="url(#paint2_linear_131_488)"/>
</g>
<path d="M104.66 26.0583C104.543 26.0583 104.397 26.0218 104.222 25.9488C103.682 25.7006 103.536 25.3136 103.784 24.7879L110.727 9.34595C110.975 8.83487 111.362 8.69615 111.888 8.92979C112.428 9.14882 112.582 9.52848 112.348 10.0688L105.361 25.4888C105.215 25.8685 104.981 26.0583 104.66 26.0583ZM107.135 20.4072C106.901 20.524 106.682 20.5459 106.478 20.4729C106.274 20.3999 106.106 20.2393 105.974 19.991L101.068 10.0688C100.951 9.82053 100.929 9.59419 101.002 9.38976C101.09 9.18533 101.25 9.0247 101.484 8.90788C101.732 8.80567 101.959 8.79106 102.163 8.86408C102.367 8.93709 102.528 9.09041 102.645 9.32405L107.442 19.2682C107.559 19.5019 107.595 19.7282 107.551 19.9472C107.522 20.1517 107.383 20.305 107.135 20.4072Z" fill="#4B449C"/>
<path d="M98.344 20.8234C97.5847 20.8234 96.9057 20.6409 96.307 20.2758C95.7083 19.9107 95.2337 19.407 94.8832 18.7645C94.5474 18.122 94.3795 17.3991 94.3795 16.596V5.95091C94.3795 5.68807 94.4598 5.46904 94.6204 5.29381C94.7956 5.11858 95.022 5.03097 95.2994 5.03097C95.5622 5.03097 95.7813 5.11858 95.9565 5.29381C96.1317 5.46904 96.2193 5.68807 96.2193 5.95091V16.596C96.2193 17.2823 96.4165 17.8518 96.8107 18.3045C97.2196 18.7572 97.7307 18.9835 98.344 18.9835H99.0011C99.2347 18.9835 99.4319 19.0711 99.5925 19.2463C99.7531 19.4216 99.8334 19.6406 99.8334 19.9034C99.8334 20.1809 99.7312 20.4072 99.5268 20.5824C99.3369 20.7431 99.0887 20.8234 98.7821 20.8234H98.344ZM93.0871 10.8792C92.8389 10.8792 92.6345 10.8062 92.4738 10.6602C92.3132 10.4995 92.2329 10.3097 92.2329 10.0907C92.2329 9.85704 92.3132 9.66721 92.4738 9.52118C92.6345 9.36056 92.8389 9.28025 93.0871 9.28025H98.4973C98.7455 9.28025 98.95 9.36056 99.1106 9.52118C99.2712 9.66721 99.3515 9.85704 99.3515 10.0907C99.3515 10.3097 99.2712 10.4995 99.1106 10.6602C98.95 10.8062 98.7455 10.8792 98.4973 10.8792H93.0871Z" fill="#4B449C"/>
<path d="M88.5977 20.8234C88.3203 20.8234 88.0939 20.7431 87.9187 20.5824C87.7435 20.4072 87.6559 20.1736 87.6559 19.8815V9.78402C87.6559 9.49197 87.7435 9.26564 87.9187 9.10501C88.0939 8.92978 88.3203 8.84217 88.5977 8.84217C88.8752 8.84217 89.0942 8.92978 89.2548 9.10501C89.4301 9.26564 89.5177 9.49197 89.5177 9.78402V19.8815C89.5177 20.1736 89.4301 20.4072 89.2548 20.5824C89.0942 20.7431 88.8752 20.8234 88.5977 20.8234ZM88.5758 6.67372C88.2254 6.67372 87.926 6.5496 87.6778 6.30136C87.4295 6.03852 87.3054 5.73187 87.3054 5.38142C87.3054 5.01636 87.4295 4.71701 87.6778 4.48337C87.9406 4.24974 88.24 4.13292 88.5758 4.13292C88.9117 4.13292 89.2037 4.24974 89.452 4.48337C89.7148 4.71701 89.8462 5.01636 89.8462 5.38142C89.8462 5.73187 89.7221 6.03852 89.4739 6.30136C89.2256 6.5496 88.9263 6.67372 88.5758 6.67372Z" fill="#4B449C"/>
<path d="M82.7121 20.8234C82.4346 20.8234 82.2083 20.7358 82.0331 20.5605C81.8579 20.3853 81.7702 20.1663 81.7702 19.9034V14.318C81.7702 13.4273 81.6023 12.7045 81.2665 12.1496C80.9452 11.5801 80.4998 11.1566 79.9303 10.8792C79.3609 10.5871 78.7111 10.4411 77.9809 10.4411C77.2946 10.4411 76.674 10.5798 76.1191 10.8573C75.5789 11.1201 75.1481 11.4852 74.8268 11.9525C74.5056 12.4051 74.345 12.9308 74.345 13.5295H73.0746C73.1038 12.6096 73.3447 11.7918 73.7974 11.0763C74.2646 10.3462 74.8852 9.76942 75.6592 9.34595C76.4331 8.92248 77.2946 8.71075 78.2438 8.71075C79.2659 8.71075 80.1786 8.92978 80.9817 9.36785C81.7994 9.79132 82.4419 10.4192 82.9092 11.2516C83.3911 12.0839 83.632 13.106 83.632 14.318V19.9034C83.632 20.1663 83.5444 20.3853 83.3692 20.5605C83.194 20.7358 82.9749 20.8234 82.7121 20.8234ZM73.425 20.8234C73.133 20.8234 72.8993 20.7431 72.7241 20.5824C72.5635 20.4072 72.4832 20.1809 72.4832 19.9034V9.78402C72.4832 9.49197 72.5635 9.26564 72.7241 9.10501C72.8993 8.92978 73.133 8.84217 73.425 8.84217C73.7024 8.84217 73.9215 8.92978 74.0821 9.10501C74.2573 9.26564 74.345 9.49197 74.345 9.78402V19.9034C74.345 20.1809 74.2573 20.4072 74.0821 20.5824C73.9215 20.7431 73.7024 20.8234 73.425 20.8234Z" fill="#4B449C"/>
<path d="M64.4838 20.9329C63.2864 20.9329 62.2277 20.6774 61.3078 20.1663C60.3879 19.6406 59.665 18.9178 59.1394 17.9978C58.6137 17.0779 58.3508 16.0265 58.3508 14.8437C58.3508 13.6463 58.5991 12.595 59.0955 11.6896C59.592 10.7697 60.271 10.0469 61.1326 9.52118C62.0087 8.99549 63.0163 8.73265 64.1553 8.73265C65.265 8.73265 66.2288 8.98819 67.0465 9.49927C67.8788 9.99575 68.5141 10.6894 68.9521 11.5801C69.4048 12.4708 69.6311 13.4857 69.6311 14.6247C69.6311 14.8729 69.5508 15.0774 69.3902 15.238C69.2296 15.384 69.0251 15.457 68.7769 15.457H59.6212V13.9457H68.8864L67.9446 14.6028C67.9592 13.7997 67.8131 13.0768 67.5065 12.4343C67.1998 11.7918 66.7618 11.2881 66.1923 10.923C65.6228 10.5579 64.9438 10.3754 64.1553 10.3754C63.3229 10.3754 62.5928 10.5652 61.9649 10.9449C61.3516 11.3246 60.877 11.8575 60.5412 12.5439C60.2199 13.2156 60.0593 13.9822 60.0593 14.8437C60.0593 15.7053 60.2491 16.4719 60.6288 17.1436C61.0085 17.8153 61.5268 18.341 62.1839 18.7206C62.8556 19.1003 63.6223 19.2901 64.4838 19.2901C64.9803 19.2901 65.4841 19.2025 65.9952 19.0273C66.5208 18.8521 66.937 18.633 67.2436 18.3702C67.4189 18.2388 67.616 18.1731 67.835 18.1731C68.0687 18.1585 68.2585 18.2169 68.4045 18.3483C68.6236 18.5381 68.7331 18.7425 68.7331 18.9616C68.7477 19.1806 68.6528 19.3704 68.4483 19.5311C67.9665 19.9399 67.3532 20.2758 66.6084 20.5386C65.8637 20.8015 65.1555 20.9329 64.4838 20.9329Z" fill="#4B449C"/>
<path d="M50.4489 13.3981C50.4781 12.5074 50.7044 11.7115 51.1279 11.0106C51.5659 10.2951 52.1354 9.73291 52.8363 9.32404C53.5519 8.91518 54.3331 8.71075 55.18 8.71075C55.9247 8.71075 56.4869 8.82026 56.8666 9.0393C57.2608 9.25833 57.4069 9.55768 57.3046 9.93734C57.2608 10.1418 57.1659 10.2878 57.0199 10.3754C56.8885 10.463 56.7279 10.5068 56.538 10.5068C56.3628 10.5068 56.1584 10.4922 55.9247 10.463C55.0632 10.3608 54.2966 10.4192 53.6249 10.6383C52.9678 10.8427 52.4421 11.1858 52.0478 11.6677C51.6535 12.1496 51.4564 12.7264 51.4564 13.3981H50.4489ZM50.5584 20.8234C50.2663 20.8234 50.04 20.7431 49.8794 20.5824C49.7187 20.4218 49.6384 20.1955 49.6384 19.9034V9.76212C49.6384 9.47007 49.7187 9.24373 49.8794 9.08311C50.04 8.92248 50.2663 8.84217 50.5584 8.84217C50.8504 8.84217 51.0695 8.92248 51.2155 9.08311C51.3761 9.24373 51.4564 9.47007 51.4564 9.76212V19.9034C51.4564 20.1955 51.3761 20.4218 51.2155 20.5824C51.0695 20.7431 50.8504 20.8234 50.5584 20.8234Z" fill="#4B449C"/>
<path d="M41.6391 20.9329C40.4417 20.9329 39.383 20.6774 38.4631 20.1663C37.5431 19.6406 36.8203 18.9178 36.2946 17.9978C35.7689 17.0779 35.5061 16.0265 35.5061 14.8437C35.5061 13.6463 35.7543 12.595 36.2508 11.6896C36.7473 10.7697 37.4263 10.0469 38.2878 9.52118C39.164 8.99549 40.1715 8.73265 41.3105 8.73265C42.4203 8.73265 43.3841 8.98819 44.2018 9.49927C45.0341 9.99575 45.6693 10.6894 46.1074 11.5801C46.5601 12.4708 46.7864 13.4857 46.7864 14.6247C46.7864 14.8729 46.7061 15.0774 46.5455 15.238C46.3848 15.384 46.1804 15.457 45.9322 15.457H36.7765V13.9457H46.0417L45.0998 14.6028C45.1144 13.7997 44.9684 13.0768 44.6618 12.4343C44.3551 11.7918 43.917 11.2881 43.3476 10.923C42.7781 10.5579 42.0991 10.3754 41.3105 10.3754C40.4782 10.3754 39.7481 10.5652 39.1202 10.9449C38.5069 11.3246 38.0323 11.8575 37.6965 12.5439C37.3752 13.2156 37.2146 13.9822 37.2146 14.8437C37.2146 15.7053 37.4044 16.4719 37.7841 17.1436C38.1637 17.8153 38.6821 18.341 39.3392 18.7206C40.0109 19.1003 40.7775 19.2901 41.6391 19.2901C42.1356 19.2901 42.6393 19.2025 43.1504 19.0273C43.6761 18.8521 44.0923 18.633 44.3989 18.3702C44.5742 18.2388 44.7713 18.1731 44.9903 18.1731C45.224 18.1585 45.4138 18.2169 45.5598 18.3483C45.7788 18.5381 45.8884 18.7425 45.8884 18.9616C45.903 19.1806 45.808 19.3704 45.6036 19.5311C45.1217 19.9399 44.5084 20.2758 43.7637 20.5386C43.019 20.8015 42.3108 20.9329 41.6391 20.9329Z" fill="#4B449C"/>
<path d="M22.0869 20.8234C21.8095 20.8234 21.5978 20.7431 21.4517 20.5824C21.3057 20.4072 21.2254 20.2028 21.2108 19.9691C21.1962 19.7209 21.2692 19.5019 21.4298 19.312L27.0809 11.6458L27.9352 10.923L33.0387 4.0234C33.2139 3.81897 33.4476 3.71675 33.7396 3.71675C33.9878 3.71675 34.185 3.80436 34.331 3.97959C34.4916 4.14022 34.5792 4.33735 34.5938 4.57099C34.6084 4.79002 34.55 4.99445 34.4186 5.18428L29.0523 12.4343L28.2418 13.1133L22.7441 20.5386C22.5688 20.7285 22.3498 20.8234 22.0869 20.8234ZM33.8053 20.8234C33.6739 20.8234 33.5425 20.7942 33.4111 20.7358C33.2942 20.6774 33.1847 20.5897 33.0825 20.4729L27.738 13.0695L27.0152 12.522L21.7584 5.18428C21.6124 4.99445 21.5467 4.78272 21.5613 4.54908C21.5905 4.31545 21.6781 4.11831 21.8241 3.95769C21.9701 3.79706 22.1746 3.71675 22.4374 3.71675C22.7441 3.71675 22.9777 3.81897 23.1383 4.0234L28.198 11.0325L28.877 11.5363L34.4843 19.312C34.6303 19.5019 34.6961 19.7209 34.6815 19.9691C34.6815 20.2028 34.6011 20.4072 34.4405 20.5824C34.2945 20.7431 34.0828 20.8234 33.8053 20.8234Z" fill="#4B449C"/>
<defs>
<linearGradient id="paint0_linear_131_488" x1="2.35518" y1="29.4737" x2="2.35525" y2="11.8739" gradientUnits="userSpaceOnUse">
<stop stop-color="#4B449C" stop-opacity="0"/>
<stop offset="1" stop-color="#4B449C"/>
</linearGradient>
<linearGradient id="paint1_linear_131_488" x1="6.81746" y1="24.4263" x2="6.81753" y2="5.92238" gradientUnits="userSpaceOnUse">
<stop stop-color="#4B449C" stop-opacity="0"/>
<stop offset="1" stop-color="#4B449C"/>
</linearGradient>
<linearGradient id="paint2_linear_131_488" x1="11.4002" y1="18.8812" x2="11.4003" y2="0.377234" gradientUnits="userSpaceOnUse">
<stop stop-color="#4B449C" stop-opacity="0"/>
<stop offset="1" stop-color="#4B449C"/>
</linearGradient>
<clipPath id="clip0_131_488">
<rect width="12.663" height="29.7751" fill="white" transform="translate(0.546143)"/>
</clipPath>
</defs>
</svg>
