<svg width="81" height="24" viewBox="0 0 81 24" fill="none" xmlns="http://www.w3.org/2000/svg">
<path d="M63.0746 23.4185L48.3106 10.0565V23.4185H44.0188V0.929199H44.4766L59.2405 14.4914V0.929199H63.5324V23.4185H63.0746Z" fill="#A6A6A6"/>
<path d="M70.1126 19.5272V14.2625H78.4388V10.3426H70.1126V4.73464H79.2972V0.929199H78.5819H69.3973H65.8208V23.4185H69.3973H80.1842V19.5272H70.1126Z" fill="#A6A6A6"/>
<path d="M19.4979 7.39558C18.9256 5.96496 18.0959 4.76325 17.0086 3.76182C14.9485 1.87341 12.3162 0.929199 9.08299 0.929199H0.213182V4.82047H4.50503H9.08299C9.85553 4.82047 10.6567 4.90631 11.4864 5.1066C12.3162 5.30688 13.0601 5.65023 13.7182 6.19386C14.4049 6.7375 14.9485 7.48142 15.3777 8.45423C15.8069 9.42705 16.0072 10.686 16.0072 12.2311C16.0072 13.7761 15.8069 15.0637 15.3777 16.0079C14.9485 16.9807 14.3763 17.7246 13.7182 18.2683C13.0601 18.8119 12.3162 19.1838 11.4864 19.3555C10.6567 19.5558 9.85553 19.6416 9.05438 19.6416H4.47641V10.9721H0.18457V19.613V23.4185H9.05438C10.6567 23.4185 12.1159 23.1896 13.4607 22.7032C14.8055 22.2168 15.9786 21.5301 16.98 20.6145C18.0959 19.613 18.897 18.4113 19.4693 16.9807C20.0415 15.5501 20.3276 13.9478 20.3276 12.1738C20.3276 10.3999 20.0415 8.79758 19.4979 7.39558Z" fill="#A6A6A6"/>
<path d="M19.1548 23.3899L30.6283 0.929199H31.0575L42.5597 23.3899H37.8672L34.491 16.6374L27.0232 16.5801L23.8186 23.3899H19.1548ZM29.026 13.2325H32.6884L30.8572 9.34122L29.026 13.2325Z" fill="#A6A6A6"/>
</svg>
