<svg width="84" height="22" viewBox="0 0 84 22" fill="none" xmlns="http://www.w3.org/2000/svg">
<path fill-rule="evenodd" clip-rule="evenodd" d="M62.8374 0.949707V6.58153H50.8942V15.8321H62.8397V21.3983H51.6539C49.1091 21.3983 46.7863 21.0194 45.5149 19.1186C44.7782 18.047 44.5769 16.8395 44.5769 15.3205V7.20716C44.5769 5.19523 44.8904 3.60856 46.2738 2.2908C47.4116 1.19588 49.0876 0.949707 50.9843 0.949707H62.8374Z" fill="#A6A6A6"/>
<path fill-rule="evenodd" clip-rule="evenodd" d="M83.9977 0.949707V6.58153H72.0545V15.8321H84V21.3983H72.8143C70.2694 21.3983 67.9466 21.0194 66.6758 19.1186C65.9382 18.047 65.7378 16.8395 65.7378 15.3205V7.20716C65.7378 5.19523 66.0502 3.60856 67.4336 2.2908C68.5719 1.19588 70.2473 0.949707 72.1446 0.949707H83.9977Z" fill="#A6A6A6"/>
<path fill-rule="evenodd" clip-rule="evenodd" d="M14.5061 12.9262C14.5061 13.8596 14.4087 14.6334 13.8589 15.2339C13.4077 15.7277 12.717 15.7796 11.964 15.7796H6.26854V6.47483H11.6968C12.7071 6.47483 13.6469 6.61716 14.1608 7.48021C14.4446 7.96788 14.5061 8.54743 14.5061 9.2381V12.9262ZM19.8877 3.15943C18.593 1.26242 16.2249 0.949463 13.6813 0.949463H0V21.3983H14.3504C16.2489 21.3983 17.9892 21.2858 19.1282 20.1923C20.5116 18.8745 20.7578 17.1785 20.7578 15.1254V7.02054C20.7578 5.50416 20.6017 4.23044 19.8877 3.15943Z" fill="#A6A6A6"/>
<path fill-rule="evenodd" clip-rule="evenodd" d="M23.0483 0.949951V6.4969H29.447V21.3909L35.9599 21.3979V6.50215H42.2489V6.49573H42.2958V0.959868H42.204V0.949951H23.0483Z" fill="#A6A6A6"/>
</svg>
