<svg width="47" height="39" viewBox="0 0 47 39" fill="none" xmlns="http://www.w3.org/2000/svg">
<path d="M0.634277 14.5671H6.77671C6.77671 14.806 6.77671 15.0108 6.77671 15.352C6.77671 24.7022 14.2841 32.2096 23.6343 32.2096C32.9845 32.2096 40.4918 24.7022 40.4918 15.352C40.4918 15.1132 40.4918 14.9084 40.4918 14.5671H46.6343V38.2496H0.634277V14.5671Z" fill="#A6A6A6"/>
<path d="M8.24414 15.3518C8.24414 6.92306 15.0691 0.0981445 23.4978 0.0981445C31.9266 0.0981445 38.7515 6.92306 38.7515 15.3518C38.7515 23.7806 31.9266 30.6055 23.4978 30.6055C15.2056 30.6055 8.24414 23.7806 8.24414 15.3518Z" fill="#A6A6A6"/>
<path d="M25.1012 2.58942L24.1798 3.2719L24.521 4.29565L23.6338 3.74967L22.7124 4.29565L23.0537 3.2719L22.1323 2.58942H23.2925L23.6338 1.56567L23.9751 2.58942H25.1012Z" fill="white"/>
<path d="M25.1012 27.0906L24.1798 27.7731L24.521 28.7969L23.6338 28.2167L22.7124 28.7969L23.0537 27.7731L22.1323 27.0906H23.2925L23.6338 26.0669L23.9751 27.0906H25.1012Z" fill="white"/>
<path d="M31.1414 4.29529L30.2201 4.97777L30.5613 6.00152L29.7764 5.31904L28.8551 6.00152L29.1963 4.97777L28.3091 4.29529H29.3328L29.7764 3.16919L30.1177 4.29529H31.1414Z" fill="white"/>
<path d="M35.6803 8.73175L34.7931 9.44839L35.1343 10.4721L34.213 9.7896L33.2916 10.4721L33.6328 9.44839L32.7456 8.73175H33.8717L34.213 7.70801L34.5542 8.73175H35.6803Z" fill="white"/>
<path d="M37.2845 14.9083L36.3632 15.5907L36.7385 16.6145L35.8172 15.932L34.8958 16.6145L35.2371 15.5907L34.3157 14.9083H35.4759L35.8172 13.8845L36.1584 14.9083H37.2845Z" fill="white"/>
<path d="M35.6803 21.0505L34.7931 21.6305L35.1343 22.7567L34.213 22.0742L33.2916 22.7567L33.6328 21.6305L32.7456 21.0505H33.8717L34.213 19.9243L34.5542 21.0505H35.6803Z" fill="white"/>
<path d="M31.1414 25.4859L30.2201 26.1684L30.5613 27.1921L29.7764 26.5096L28.8551 27.1921L29.1963 26.1684L28.3091 25.4859H29.3328L29.7764 24.4622L30.1177 25.4859H31.1414Z" fill="white"/>
<path d="M18.9591 25.4859L18.0377 26.1684L18.3789 27.1921L17.4576 26.5096L16.5704 27.1921L16.9116 26.1684L15.9902 25.4859H17.1163L17.4576 24.4622L17.7988 25.4859H18.9591Z" fill="white"/>
<path d="M12.8169 14.9083L11.8955 15.5907L12.2368 16.6145L11.3154 15.932L10.4282 16.6145L10.7694 15.5907L9.95044 14.9083H10.9742L11.3154 13.8845L11.6567 14.9083H12.8169Z" fill="white"/>
<path d="M18.9591 4.29529L18.0377 4.97777L18.3789 6.00152L17.4576 5.31904L16.5704 6.00152L16.9116 4.97777L15.9902 4.29529H17.1163L17.4576 3.16919L17.7988 4.29529H18.9591Z" fill="white"/>
<path d="M14.3863 8.73175L13.6014 9.44839L13.9427 10.4721L13.0213 9.7896L12.1341 10.4721L12.4753 9.44839L11.554 8.73175H12.6801L13.0213 7.70801L13.3625 8.73175H14.3863Z" fill="white"/>
<path d="M14.3863 21.0505L13.6014 21.6305L13.9427 22.7567L13.0213 22.0742L12.1341 22.7567L12.4753 21.6305L11.554 21.0505H12.6801L13.0213 19.9243L13.3625 21.0505H14.3863Z" fill="white"/>
<path d="M14.387 13.3046H16.1956C17.117 9.65325 20.393 7.02563 24.3856 7.02563C26.6719 7.02563 28.8218 7.94698 30.3232 9.51675L29.7431 10.9841C28.4805 9.51675 26.5695 8.493 24.3856 8.493C21.212 8.493 18.5844 10.5405 17.663 13.4069H28.7194L28.1392 14.7719H17.3218C17.3218 15.0108 17.3218 15.2155 17.3218 15.4544C17.3218 15.6932 17.3218 15.898 17.3218 16.1369H27.4568L26.8767 17.5018H17.5265C18.4478 20.3341 21.0413 22.4157 24.249 22.4157C26.3989 22.4157 28.344 21.392 29.6066 19.9246V21.8697C28.1392 23.1323 26.2965 23.8148 24.249 23.8148C20.393 23.8148 17.0829 21.0848 16.0591 17.5359H13.6704L14.2505 16.1709H15.8544C15.8544 15.932 15.8544 15.7273 15.8544 15.4884C15.8544 15.2496 15.8544 15.0448 15.8544 14.8059H13.7046L14.387 13.3046Z" fill="white"/>
</svg>
