<svg width="120" height="25" viewBox="0 0 120 25" fill="none" xmlns="http://www.w3.org/2000/svg">
<path d="M19.3297 8.34092L17.8086 8.9208L17.6621 9.33411L17.3214 9.55714C17.2249 8.28615 17.1626 7.78193 17.1357 7.78193L17.6851 7.77459L18.6971 6.5324L17.2255 7.16761L17.093 7.60012L15.6488 8.70172C15.6808 8.97387 15.7633 9.80106 15.7078 10.6107L16.0271 10.3945C16.1652 16.4479 13.4144 18.7251 13.4144 18.7251C12.719 18.4021 12.5394 18.1655 12.5394 18.1655C15.0483 15.3531 14.9332 11.2872 14.9287 11.1421L14.6644 11.3177C14.6644 11.3177 14.7727 10.0314 14.702 9.42332L14.2395 9.77621C14.2288 9.36064 14.2047 9.01509 14.1766 8.77399C14.4561 8.79262 14.7446 8.75028 14.9815 8.57863C15.2313 8.39625 15.3637 7.85872 15.4053 7.62779C15.4468 7.39798 15.398 7.32006 15.2593 7.22972C15.1207 7.13994 14.8288 6.874 14.7104 6.7543C14.7104 6.7543 14.9495 6.65097 15.5091 6.91522C16.113 7.20262 16.5716 7.06259 17.0868 6.29412L16.4683 6.38503L16.5227 5.95591C16.5328 5.96043 16.5435 5.96607 16.5547 5.97285C16.6406 6.0327 16.933 6.14054 17.0717 6.16821C17.2109 6.19644 17.2069 6.17612 17.2945 6.22863C17.3821 6.28001 17.4567 6.30203 17.5027 6.28001C17.5027 6.28001 17.8479 6.47537 17.9865 6.28001C17.9865 6.28001 18.1201 6.36019 18.1875 6.38447C18.2913 6.42286 18.4591 6.48271 18.5136 6.47198C18.5691 6.46126 18.701 6.51772 18.7224 6.52788C18.9401 6.63799 19.0732 6.58096 19.104 6.52788C19.136 6.47537 18.9688 6.30146 18.8397 6.19306C18.7111 6.08465 18.6 6.06375 18.6 6.06375C18.6421 6.03552 18.6314 5.99317 18.5478 5.89211C18.4647 5.78991 18.1908 5.65439 18.1908 5.65439C18.1942 5.57365 17.881 5.37829 17.6947 5.23544C17.5055 5.09202 17.583 5.09936 17.3849 4.89383C17.1873 4.68661 16.2803 3.96276 15.8285 3.63866C15.3772 3.31456 14.1379 2.36428 13.0777 2.02155C12.0197 1.67825 11.3927 1.75617 10.9454 2.03566C10.4969 2.31516 10.6081 2.68894 10.6889 2.91988C10.7675 3.15081 10.9218 3.44047 11.0122 3.61833C11.102 3.79675 11.029 3.79337 10.9875 3.82216C10.9459 3.8487 10.9903 3.91928 10.9499 3.91194C10.9083 3.90516 10.8825 3.95767 10.8303 4.01696C10.8045 4.04689 10.7276 4.07286 10.6277 4.09319C10.6081 4.00906 10.6603 3.94582 10.6603 3.94582C10.5901 3.9046 10.47 3.89105 10.47 3.89105C10.4846 3.86169 10.5396 3.84136 10.5396 3.84136C10.4633 3.8216 10.3173 3.84757 10.3173 3.84757C10.3409 3.80974 10.3617 3.80353 10.3617 3.80353C10.2247 3.75666 10.1024 3.86846 10.053 3.92323C9.99235 3.81426 9.91489 3.73747 9.838 3.66463C9.75549 3.58727 9.7134 3.47548 9.62472 3.38796C9.62472 3.38796 9.69712 3.27729 9.64492 3.16662C9.59384 3.05652 9.45184 2.96787 9.36878 2.94698C9.36878 2.94698 9.4423 2.90915 9.43164 2.82559C9.42153 2.74202 9.34352 2.7104 9.25989 2.7375C9.1757 2.76291 9.07804 2.76291 9.01517 2.82107C9.01517 2.82107 8.9467 2.82841 8.89338 2.82163C8.96185 2.59183 8.99609 2.27789 8.60432 2.0351C8.15699 1.75561 7.53229 1.67825 6.47261 2.02098C5.41349 2.36428 4.17364 3.31399 3.72294 3.63809C3.27168 3.96219 2.36354 4.68605 2.16766 4.89327C1.96841 5.0988 2.04474 5.09146 1.8584 5.23487C1.67037 5.37773 1.35774 5.57309 1.36111 5.65383C1.36111 5.65383 1.08721 5.78991 1.00358 5.89154C0.920513 5.99261 0.909849 6.03496 0.950822 6.06319C0.950822 6.06319 0.840813 6.08408 0.71172 6.19249C0.583189 6.3009 0.416491 6.47481 0.447361 6.52732C0.479353 6.58039 0.610129 6.63742 0.829587 6.52732C0.849792 6.51715 0.982253 6.46069 1.03782 6.47142C1.09338 6.48158 1.26064 6.4223 1.36448 6.3839C1.43183 6.35906 1.56598 6.27944 1.56598 6.27944C1.70461 6.47481 2.04867 6.27944 2.04867 6.27944C2.09357 6.3009 2.17047 6.27944 2.25634 6.22806C2.34334 6.17555 2.33997 6.19588 2.47804 6.16765C2.6178 6.13998 2.91022 6.0327 2.9961 5.97228C3.00788 5.96325 3.02023 5.95817 3.03089 5.95422L3.08646 6.38503L2.46794 6.29412C2.9815 7.06259 3.44062 7.20318 4.04455 6.91522C4.6047 6.65097 4.8438 6.7543 4.8438 6.7543C4.72594 6.874 4.43295 7.13994 4.29488 7.22972C4.15624 7.32063 4.10741 7.39798 4.14951 7.62779C4.19048 7.85872 4.32182 8.39625 4.57327 8.57863C4.81013 8.75028 5.09862 8.79206 5.37813 8.77399C5.35007 9.01452 5.3265 9.36064 5.31471 9.77621L4.84773 9.41993C4.77701 10.0275 4.88477 11.3177 4.88477 11.3177L4.62098 11.1421C4.61536 11.2877 4.50143 15.3531 7.01143 18.1655C7.01143 18.1655 6.83014 18.4021 6.13585 18.7251C6.13585 18.7251 3.38393 16.4474 3.52425 10.3945L3.84362 10.6107C3.78693 9.7988 3.87 8.96879 3.90143 8.69889L2.46176 7.60012L2.32874 7.16761L0.857089 6.5324L1.87018 7.77459L2.41911 7.78193C2.39105 7.78193 2.32874 8.28615 2.23164 9.55714L1.89207 9.33411L1.74558 8.9208L0.225098 8.34092L1.30106 9.54923L1.83595 9.51535C1.83595 9.51535 1.28815 14.8743 3.09656 17.7579C4.60302 20.157 6.79422 20.1762 8.78898 18.8284C8.71826 19.0627 8.47748 19.76 7.80339 21.031C7.80339 21.031 8.19235 21.031 8.60881 21.1022C8.60881 21.1022 8.52631 21.4511 8.48253 21.5561C8.43987 21.664 8.44717 21.8407 8.65203 21.8503C8.85802 21.8565 9.12518 21.8825 9.12518 21.8825C9.12518 21.8825 9.0887 22.1343 9.08309 22.2681C9.07691 22.4488 9.05951 22.5239 9.77457 22.5544C10.5239 22.5239 10.475 22.4488 10.4677 22.2681C10.4621 22.1343 10.4279 21.8825 10.4279 21.8825C10.4279 21.8825 10.6956 21.8571 10.901 21.8503C11.1059 21.8407 11.1132 21.664 11.07 21.5561C11.0279 21.4506 10.942 21.1022 10.942 21.1022C11.3596 21.031 11.7486 21.031 11.7486 21.031C11.0734 19.7555 10.8314 19.0605 10.7602 18.8284C12.7566 20.1756 14.9495 20.1592 16.4571 17.7579C18.2649 14.8743 17.7171 9.51535 17.7171 9.51535L18.252 9.54923L19.3297 8.34092ZM10.6249 6.26646C10.6844 5.99656 10.7327 5.76958 10.7882 5.80798C10.8432 5.84637 10.9409 5.85032 10.9757 5.80515C11.0111 5.75829 11.0212 5.75264 11.0492 5.80064C11.0773 5.84919 11.2434 5.92994 11.3551 5.73796C11.4662 5.54599 11.4348 5.64367 11.4662 5.71707C11.4982 5.78991 11.5847 5.82153 11.6818 5.74474C11.7789 5.66851 11.8552 5.60075 11.9248 5.56631C11.9933 5.53243 11.9966 5.54937 12.0348 5.47936C12.0735 5.40878 12.1358 5.37716 12.1387 5.33199C12.142 5.28625 12.0971 5.23431 12.1639 5.1993C12.2296 5.16429 12.261 5.13945 12.3205 5.16768C12.38 5.19591 12.3963 5.13945 12.4277 5.17785C12.4586 5.21624 12.4995 5.22019 12.5388 5.17785C12.577 5.13606 12.6051 5.07 12.65 5.14679C12.6949 5.22302 12.7953 5.24052 12.8161 5.20212C12.838 5.16429 12.8548 5.16034 12.8823 5.22019C12.9104 5.27948 13.0109 5.32521 13.1186 5.30771C13.1186 5.30771 13.2191 5.44718 13.3415 5.42628C13.4638 5.40483 13.5115 5.34272 13.5143 5.25972C13.5183 5.17559 13.4728 4.89327 13.5559 4.95482C13.6395 5.01749 13.6361 4.98982 13.6597 4.94013C13.6844 4.89271 13.7226 4.94352 13.7647 4.93279C13.8062 4.92376 13.7989 4.87012 13.8685 4.94013C13.9386 5.01071 13.9448 5.04516 14.0111 5.06266C14.0767 5.0796 14.1048 5.09767 14.1744 5.17107C14.2445 5.24447 14.3209 5.32465 14.4449 5.27891C14.4449 5.27891 14.5246 5.38337 14.6088 5.3766C14.6088 5.3766 14.7789 5.56236 14.876 5.53469C14.876 5.53469 15.0421 5.60358 15.0982 5.59737C15.1544 5.59059 15.1645 5.55276 15.1998 5.57196C15.2341 5.59398 15.2206 5.5059 15.2722 5.56518C15.3233 5.62503 15.4182 5.73006 15.4771 5.71255C15.4771 5.71255 15.6169 5.83113 15.7235 5.84355C15.8318 5.85823 15.8633 5.89041 15.8975 5.89041C15.9317 5.89041 15.9149 5.8554 15.9777 5.90453C16.0395 5.95365 16.131 5.97737 16.1899 5.95365C16.2488 5.92824 16.2724 5.93163 16.3257 5.93897C16.3431 5.94123 16.3656 5.93897 16.3903 5.93671C16.2157 6.14563 15.9879 6.31163 15.5641 6.18007C15.0023 6.00503 14.8339 6.0886 14.7177 6.20774C14.5993 6.32574 14.3428 6.66904 14.272 6.88586C14.2041 7.10211 14.2389 7.26981 14.6537 7.75935C14.6537 7.75935 14.1121 7.79379 13.3976 7.56285C12.682 7.33305 12.0219 7.24892 11.3557 7.54987C11.2401 7.60238 11.1329 7.65037 11.0329 7.70062C10.9589 7.62496 10.7742 7.43355 10.7057 7.3466C10.7057 7.3466 10.7506 7.12357 10.7473 6.9937C10.7433 6.8469 10.7372 6.77801 10.685 6.70405C10.6316 6.63347 10.5671 6.53522 10.6249 6.26646ZM13.4863 8.63227C13.1708 8.83271 12.6348 9.06816 11.8406 9.06816C11.221 9.06816 10.7433 8.92475 10.4043 8.76496C10.5452 8.678 11.0913 8.36576 11.7789 8.34769C12.5776 8.32624 12.925 8.43747 13.3072 8.57185C13.3594 8.59049 13.4206 8.61025 13.4863 8.63227ZM10.1961 7.49115C10.2006 7.4934 10.2045 7.49453 10.209 7.49623C10.3499 7.55213 10.4964 7.53123 10.4964 7.53123C10.5418 7.55947 10.7394 7.74636 10.8107 7.81694C10.6092 7.92704 10.4313 8.04223 10.2573 8.19073C10.2152 8.01738 10.1534 7.7345 10.1714 7.63964C10.1815 7.58657 10.1905 7.53575 10.1961 7.49115ZM9.20657 3.67028C9.28458 3.72222 9.43613 3.812 9.48889 3.94186C9.50348 3.98082 9.51527 4.01809 9.52537 4.05366C9.4148 4.02599 9.32949 4.0243 9.26438 4.03503C9.15156 3.85152 9.02584 3.73182 8.90853 3.65277C9.03145 3.63527 9.13753 3.62341 9.20657 3.67028ZM8.53809 3.61777C8.53978 3.61381 8.54202 3.61099 8.54371 3.60478C8.63912 3.7465 8.84511 3.99212 9.17514 4.06382C9.1409 4.08076 9.11508 4.10222 9.09656 4.12085C8.91751 4.09714 8.76036 4.06382 8.71826 4.01583C8.66606 3.95654 8.64249 3.90403 8.60039 3.91081C8.55942 3.91815 8.60376 3.84701 8.56279 3.82103C8.52069 3.79337 8.44941 3.79619 8.53809 3.61777ZM8.40058 5.85823C8.41517 5.95252 8.44043 6.05641 8.48926 6.15974C8.47635 6.18346 8.464 6.20717 8.45222 6.23201C8.42415 6.01689 8.3366 5.87686 8.3192 5.85089C8.34782 5.86049 8.37532 5.86162 8.40058 5.85823ZM4.89881 7.7616C5.31527 7.2715 5.34951 7.10437 5.28047 6.88812C5.21087 6.6713 4.95437 6.328 4.83594 6.20999C4.71808 6.09142 4.55194 6.00729 3.98899 6.18233C3.56523 6.31332 3.33903 6.14901 3.16335 5.93953C3.18693 5.94123 3.2077 5.94292 3.22397 5.94066C3.27729 5.93332 3.30031 5.9305 3.36092 5.95534C3.41929 5.97906 3.51022 5.95534 3.57196 5.90622C3.63482 5.85766 3.61742 5.89211 3.65166 5.89211C3.68646 5.89211 3.71789 5.85992 3.82509 5.84524C3.93286 5.83225 4.07205 5.71425 4.07205 5.71425C4.13155 5.73119 4.22416 5.62616 4.27748 5.56688C4.32968 5.50759 4.31508 5.59567 4.35044 5.57365C4.38468 5.55446 4.39591 5.59229 4.45091 5.59906C4.50592 5.60527 4.67374 5.53639 4.67374 5.53639C4.77028 5.56462 4.94146 5.37829 4.94146 5.37829C5.02397 5.38563 5.10423 5.28061 5.10423 5.28061C5.22883 5.32634 5.30629 5.2456 5.37589 5.17276C5.44436 5.09936 5.47243 5.08129 5.53866 5.06435C5.60489 5.04629 5.61106 5.01184 5.6801 4.94183C5.75026 4.87181 5.7424 4.92602 5.78449 4.93449C5.82603 4.94522 5.86476 4.89383 5.88889 4.94183C5.91415 4.99152 5.91022 5.01918 5.99273 4.95651C6.07523 4.8944 6.03089 5.17672 6.03426 5.26141C6.03931 5.34441 6.08702 5.40709 6.20825 5.42798C6.33005 5.44943 6.43108 5.3094 6.43108 5.3094C6.53772 5.32634 6.63931 5.28117 6.66681 5.22189C6.69488 5.16204 6.71228 5.16599 6.73248 5.20382C6.75325 5.24278 6.85428 5.22471 6.9003 5.14848C6.94464 5.07169 6.97158 5.13719 7.01087 5.17954C7.04904 5.22189 7.09057 5.21793 7.122 5.17954C7.15287 5.14114 7.1714 5.19704 7.23033 5.16938C7.2887 5.14114 7.32069 5.16599 7.3858 5.20099C7.45147 5.236 7.40713 5.28795 7.4105 5.33368C7.41387 5.37885 7.47729 5.41047 7.5149 5.48105C7.55362 5.55107 7.55755 5.53356 7.62603 5.56801C7.69562 5.60245 7.77196 5.6702 7.86906 5.74643C7.9583 5.81644 8.03744 5.77184 8.07504 5.71199C8.08907 5.7741 8.10984 5.87573 8.13959 5.87573C8.16934 5.87573 8.1946 5.79668 8.21648 5.74756C8.24735 5.79047 8.28159 5.77974 8.31527 5.79273C8.29899 5.82435 8.05596 6.31558 8.35231 6.75543H8.35287C8.36691 6.75543 8.37813 6.73736 8.38879 6.708C8.41966 6.9937 8.40283 7.05807 8.40283 7.05807C8.40283 7.05807 8.26924 7.22916 8.17327 7.53123C7.51546 7.24384 6.8627 7.33418 6.15718 7.56116C5.44043 7.79097 4.89881 7.7616 4.89881 7.7616ZM7.94315 8.35842C7.86064 8.60742 7.75175 8.86264 7.60358 9.06591C6.86943 9.04501 6.36709 8.82481 6.06681 8.63227C6.13304 8.61025 6.1931 8.59049 6.24586 8.57185C6.62808 8.43747 6.97607 8.3268 7.7742 8.34769C7.83201 8.34939 7.88758 8.35447 7.94315 8.35842ZM5.57795 8.72995C5.64193 8.71866 5.70535 8.71583 5.77888 8.69777C5.98431 8.90499 6.56129 9.36742 7.64848 9.36742C9.05615 9.36742 9.77514 8.68704 9.77514 8.68704C9.77514 8.68704 10.493 9.36968 11.9007 9.36968C12.989 9.36968 13.5648 8.91233 13.7697 8.70567C13.8449 8.72374 13.9072 8.71866 13.9712 8.72939C14.1418 10.1523 13.8584 12.1725 13.8584 12.1725H9.77457H5.6902C5.6902 12.1731 5.40788 10.1528 5.57795 8.72995ZM5.6902 12.4187H9.77457H13.8578C13.8578 12.4187 13.7327 13.9906 13.0664 15.3091H9.77457H6.48159C5.8148 13.9901 5.6902 12.4187 5.6902 12.4187ZM9.77457 19.1474C7.32687 17.3649 6.60676 15.5411 6.60676 15.5411H9.77457H12.9413C12.9413 15.5411 12.224 17.3649 9.77457 19.1474Z" fill="#A6A6A6"/>
<path d="M11.3051 11.9817C11.4471 11.9783 11.5779 11.9275 11.6879 11.8428C11.7468 11.8626 11.8069 11.8727 11.8697 11.8705C12.0898 11.8682 12.2812 11.7237 12.3861 11.5119C12.486 11.5255 12.5871 11.5119 12.6791 11.4628C12.8795 11.355 12.971 11.1116 12.9277 10.8654C12.9395 10.8581 12.9485 10.849 12.9592 10.8411C13.141 10.6881 13.1371 10.3855 12.9536 10.1608C12.948 10.1534 12.9429 10.1478 12.9356 10.1421C12.9979 10.0953 13.0394 10.0281 13.0394 9.94902C13.0394 9.80955 12.8722 9.69775 12.7184 9.69775C12.5663 9.69775 12.3985 9.80955 12.3985 9.94902V9.95014C12.3985 9.95805 12.3025 9.98459 12.2475 10.0326C12.1695 10.0969 12.1487 10.1918 12.138 10.2946C12.11 10.3047 12.0926 10.3138 12.0656 10.329C12.028 10.3476 12.0011 10.3747 11.9719 10.403C11.927 10.3917 11.886 10.3855 11.8389 10.3872C11.7721 10.3877 11.7092 10.403 11.6486 10.4278C11.5386 10.3522 11.4112 10.3087 11.2731 10.3126C10.8763 10.3189 10.5625 10.7 10.571 11.1602C10.5799 11.6226 10.9094 11.989 11.3051 11.9817Z" fill="#A6A6A6"/>
<path d="M6.62421 10.8406C6.63375 10.8485 6.64386 10.8575 6.65564 10.8648C6.61242 11.111 6.70335 11.3544 6.90316 11.4622C6.99409 11.5114 7.09624 11.5249 7.19671 11.5114C7.30166 11.7231 7.4925 11.8676 7.71252 11.8699C7.77538 11.8722 7.836 11.8626 7.89437 11.8422C8.00382 11.9269 8.13459 11.9777 8.27659 11.9811C8.67341 11.9885 9.00176 11.622 9.0113 11.1602C9.01916 10.6994 8.70485 10.3188 8.30803 10.3126C8.17108 10.3087 8.04254 10.3522 7.93141 10.4273C7.87248 10.403 7.80793 10.3883 7.74058 10.3872C7.69399 10.3855 7.64853 10.3917 7.60644 10.4019C7.57613 10.3747 7.54357 10.3476 7.50541 10.329C7.47903 10.3138 7.4504 10.3036 7.42234 10.2946C7.4128 10.1918 7.39989 10.0969 7.32131 10.0326C7.2663 9.98402 7.15742 9.95805 7.15742 9.95014V9.94902C7.15742 9.80955 7.00307 9.69775 6.8504 9.69775C6.69661 9.69775 6.55742 9.80955 6.55742 9.94902C6.55742 10.0281 6.58997 10.0953 6.65171 10.1421C6.64666 10.1472 6.63824 10.1534 6.63207 10.1608C6.44685 10.3838 6.4418 10.687 6.62421 10.8406Z" fill="#A6A6A6"/>
<path d="M9.80099 15.133L10.14 14.6164L10.0755 14.3719L10.3421 14.4086C10.36 14.5204 10.4319 14.6485 10.5385 14.6644C10.6463 14.6836 10.8242 14.6644 10.8242 14.6644L10.9252 14.5458C10.8006 14.4261 10.6463 14.325 10.6463 14.325C10.6103 13.6119 10.4863 13.1274 10.3948 12.8705C10.3061 12.6136 10.1877 12.6063 9.96096 12.6362C9.73533 12.6661 9.12242 13.0382 9.12242 13.0382L9.08032 13.3962L9.28968 13.4193C9.28968 13.4193 9.17013 13.8208 9.12803 13.9653C9.0865 14.1099 9.12242 14.1031 9.19931 14.1579C9.27621 14.211 9.56863 14.2821 9.56863 14.2821L9.485 14.6536L9.80099 15.133Z" fill="#A6A6A6"/>
<path d="M9.00391 10.5983C9.1257 11.3058 9.57865 11.3702 9.75769 11.3662C9.75489 11.6158 9.71223 11.8134 9.71223 11.8134L9.93506 11.967C9.95919 11.67 9.95414 11.4346 9.93562 11.2471C10.4711 11.1692 10.5805 10.368 10.5805 10.368C10.0591 10.6046 9.94909 10.984 9.92608 11.1562C9.88903 10.8705 9.82112 10.7147 9.7852 10.6503C10.1242 10.6125 10.3869 10.3239 10.3869 9.97273C10.3869 9.77624 10.3044 9.59894 10.1702 9.47472L10.2814 9.26524L10.0451 9.31267L9.94797 9.13086L9.77453 9.27145L9.6707 9.13086L9.55956 9.29234L9.35077 9.17377L9.40914 9.36405C9.18576 9.47472 9.03197 9.70566 9.03197 9.97273C9.03197 10.3104 9.27668 10.5893 9.59661 10.6452C9.70213 10.8118 9.74366 11.0235 9.75545 11.2211C9.46303 10.7514 9.00391 10.5983 9.00391 10.5983ZM9.73861 10.639C9.57528 10.639 9.44226 10.3454 9.44226 9.98233C9.44226 9.62209 9.57528 9.32848 9.73861 9.32848C9.90194 9.32848 10.0344 9.62209 10.0344 9.98233C10.0344 10.3454 9.90194 10.639 9.73861 10.639Z" fill="#A6A6A6"/>
<path d="M10.3297 16.4196C10.2696 16.2734 10.2696 16.1288 10.3297 15.9814H9.5147C9.45408 16.1288 9.45408 16.2734 9.5147 16.4196H10.3297Z" fill="#A6A6A6"/>
<path d="M9.51519 17.4456C9.45457 17.5918 9.45457 17.8854 9.51519 18.0328H10.3302C10.2701 17.8854 10.2701 17.5924 10.3302 17.4456H9.51519Z" fill="#A6A6A6"/>
<path d="M10.5238 16.8607L10.7056 16.567H9.46016L9.3232 16.4197H9.26652H8.80347L8.86801 16.567H8.99318L9.1262 16.8607H10.5238Z" fill="#A6A6A6"/>
<path d="M10.5138 18.1798H10.4678H10.2613H10.0856H9.87961H9.74715H9.52713H9.45922L9.38401 18.033H9.11011L9.19374 18.2001L9.41712 18.3237H10.4914L10.708 18.1978L10.7384 18.033H10.5627L10.5138 18.1798Z" fill="#A6A6A6"/>
<path d="M43.7249 7.73633C42.5484 6.57658 40.8074 5.96113 39.2785 5.96113C35.4203 5.96113 33.1853 8.87181 33.2089 12.3748C33.2089 15.4041 34.9971 18.339 39.2785 18.339C40.6901 18.339 41.9838 17.9839 43.3011 16.8715V13.5108H38.7138V11.1445H45.7482V17.937C44.1015 19.7596 42.0545 20.8245 39.2785 20.8245C33.2324 20.8245 30.6208 16.7778 30.6208 12.3754C30.6208 7.59461 33.6556 3.52417 39.2785 3.52417C41.4663 3.52417 43.6777 4.35249 45.3716 6.03283L43.7249 7.73633Z" fill="#A6A6A6"/>
<path d="M64.7388 12.2215C64.7388 16.7126 62.0222 20.8243 56.2821 20.8243C50.542 20.8243 47.8254 16.6178 47.8254 12.2452C47.8254 7.18331 51.3452 3.52393 56.3293 3.52393C61.9751 3.54764 64.7388 7.72988 64.7388 12.2215ZM56.2821 18.376C60.3923 18.376 62.1171 15.4529 62.1171 12.2684C62.1171 9.20301 60.3687 6.01847 56.3298 5.94733C52.5031 5.94733 50.4477 8.63273 50.4477 12.2684C50.4948 15.2158 52.1955 18.376 56.2821 18.376Z" fill="#A6A6A6"/>
<path d="M75.0938 20.8237H72.2403L65.1436 3.57642H68.2165L73.6552 17.5364L79.1181 3.57642H82.1663L75.0938 20.8237Z" fill="#A6A6A6"/>
<path d="M83.9518 19.0835C83.9518 21.4041 80.5056 21.4041 80.5056 19.0835C80.5051 16.7905 83.9518 16.7905 83.9518 19.0835Z" fill="#A6A6A6"/>
<path d="M100.646 18.3456C98.94 20.0373 96.737 20.8238 94.4161 20.8238C88.3993 20.8238 85.699 16.6534 85.6754 12.269C85.6519 7.88466 88.4941 3.52344 94.4161 3.52344C96.6427 3.52344 98.7985 4.3574 100.48 6.04961L98.7037 7.76553C97.5194 6.59786 95.9557 6.04961 94.4161 6.04961C90.1998 6.04961 88.2809 9.17146 88.305 12.2453C88.3286 15.2955 90.1291 18.3219 94.4161 18.3219C95.9557 18.3219 97.6614 17.6782 98.8221 16.5106L100.646 18.3456Z" fill="#A6A6A6"/>
<path d="M119.735 12.2475C119.735 16.725 117.026 20.8237 111.304 20.8237C105.581 20.8237 102.873 16.6302 102.873 12.2712C102.873 7.22508 106.382 3.57642 111.351 3.57642C116.979 3.60013 119.735 7.76995 119.735 12.2475ZM111.304 18.3839C115.402 18.3839 117.121 15.4698 117.121 12.2949C117.121 9.23856 115.378 6.06419 111.351 5.99305C107.536 5.99305 105.487 8.66997 105.487 12.2949C105.534 15.2327 107.229 18.3839 111.304 18.3839Z" fill="#A6A6A6"/>
<path d="M25.5917 0.0634766H23.7412V10.4437H25.5917V0.0634766Z" fill="#FBD000"/>
<path d="M25.5917 10.4436H23.7412V17.3638H25.5917V10.4436Z" fill="#00549F"/>
<path d="M25.5917 17.3638H23.7412V24.2845H25.5917V17.3638Z" fill="#D21A3A"/>
</svg>
