<svg width="107" height="31" viewBox="0 0 107 31" fill="none" xmlns="http://www.w3.org/2000/svg">
<path fill-rule="evenodd" clip-rule="evenodd" d="M79.0717 23.0639C75.4412 23.0639 73.1777 20.9573 73.1777 17.551C73.1777 14.0101 75.2619 11.8139 78.6235 11.8139H78.9148C79.3406 11.8139 79.9233 11.8363 80.7077 11.9259V7.64551H83.0832V22.683C83.0832 22.6605 80.8197 23.0639 79.0717 23.0639ZM79.0493 13.6739C76.741 13.6739 75.6205 14.9289 75.6205 17.4837C75.6205 19.792 76.9651 21.2039 79.1389 21.2039C79.5647 21.2039 80.0353 21.1815 80.6852 21.1142V13.8308C80.0353 13.7188 79.5199 13.6739 79.0493 13.6739Z" fill="#A6A6A6"/>
<path fill-rule="evenodd" clip-rule="evenodd" d="M46.5306 22.7061L40.1212 11.4784V22.7061H37.8801V8.4978H41.0176L47.427 19.6358V8.4978H49.6905V22.7061H46.5306Z" fill="#A6A6A6"/>
<path fill-rule="evenodd" clip-rule="evenodd" d="M66.9682 22.927C65.8925 22.927 64.7496 22.8149 63.4273 22.546L63.2929 22.5236V20.5291L63.4946 20.5739C64.6823 20.8204 65.6908 21.0445 66.7217 21.0445C67.5509 21.0445 69.4782 20.91 69.4782 19.6999C69.4782 18.669 68.1559 18.4225 67.0802 18.2208L67.013 18.1984C66.8113 18.1535 66.632 18.1311 66.4752 18.0863C64.9064 17.6829 63.248 17.0778 63.248 14.9713C63.248 12.9319 64.8616 11.7441 67.6853 11.7441C69.03 11.7441 70.016 11.901 70.8228 12.0131L71.2038 12.0803V14.0076L71.0021 13.9628C70.1057 13.8059 69.0524 13.6266 68.0439 13.6266C66.9234 13.6266 65.6011 13.8283 65.6011 14.8368C65.6011 15.666 66.6993 15.9125 67.9542 16.1814C69.7247 16.5624 71.8985 17.0554 71.8985 19.4534C71.8761 21.6496 70.0832 22.927 66.9682 22.927Z" fill="#A6A6A6"/>
<path fill-rule="evenodd" clip-rule="evenodd" d="M89.7379 22.927C87.2727 22.927 85.0093 22.5012 85.0093 19.3413C85.0093 15.9125 88.5277 15.9125 90.6343 15.9125C90.836 15.9125 91.8445 15.9573 92.1358 15.9797C92.1358 14.0524 92.1134 13.6042 89.3345 13.6042C88.2364 13.6042 87.0038 13.8283 85.9281 14.0076L85.7264 14.0524V12.1475L85.8609 12.1251C87.1159 11.8786 88.326 11.7441 89.5586 11.7441C92.2479 11.7441 94.5337 12.0131 94.5337 15.3746V22.6805L94.3769 22.7029C92.4944 22.9046 91.0153 22.927 89.7379 22.927ZM90.5671 17.6157C88.5277 17.6157 87.2727 17.907 87.2727 19.4085C87.2727 21.1341 88.8863 21.2686 90.3878 21.2686C90.9481 21.2686 91.9565 21.2014 92.2703 21.179V17.6829C91.8445 17.6605 90.7015 17.6157 90.5671 17.6157Z" fill="#A6A6A6"/>
<path fill-rule="evenodd" clip-rule="evenodd" d="M56.4122 22.927C53.9471 22.927 51.6836 22.5012 51.6836 19.3413C51.6836 15.9125 55.202 15.9125 57.3086 15.9125C57.5103 15.9125 58.5188 15.9573 58.8101 15.9797C58.8101 14.0524 58.7877 13.6042 56.0088 13.6042C54.9107 13.6042 53.6781 13.8283 52.6024 14.0076L52.4007 14.0524V12.1475L52.5352 12.1251C53.7902 11.8786 55.0003 11.7441 56.2329 11.7441C58.9222 11.7441 61.208 12.0131 61.208 15.3746V22.6805L61.0512 22.7029C59.1463 22.9046 57.6672 22.927 56.4122 22.927ZM57.2414 17.6157C55.202 17.6157 53.9471 17.907 53.9471 19.4085C53.9471 21.1341 55.5606 21.2686 57.0621 21.2686C57.6224 21.2686 58.6308 21.2014 58.9446 21.179V17.6829C58.4964 17.6605 57.3759 17.6157 57.2414 17.6157Z" fill="#A6A6A6"/>
<path fill-rule="evenodd" clip-rule="evenodd" d="M103.989 27.5449V22.8835C103.07 23.0179 102.577 23.0179 102.174 23.0179C101.232 23.0179 100.179 22.8162 99.3724 22.4577C97.5571 21.6957 96.4814 19.7908 96.4814 17.3257C96.4814 16.0931 96.7728 13.852 98.7673 12.6419C99.7758 12.0368 100.964 11.7903 102.734 11.7903C103.361 11.7903 104.235 11.8351 105.065 11.8799L106.409 11.9472V26.4467L103.989 27.5449ZM102.555 13.6504C100.134 13.6504 98.9242 14.8829 98.9242 17.3257C98.9242 20.4631 100.762 21.113 102.286 21.113C102.667 21.113 103.07 21.113 104.011 21.001V13.74C103.272 13.6728 102.936 13.6504 102.555 13.6504Z" fill="#A6A6A6"/>
<path fill-rule="evenodd" clip-rule="evenodd" d="M27.2574 0.0693359L19.3913 21.7179C19.1897 22.2557 18.719 22.6367 18.1364 22.7039V22.7263H26.4506C27.1006 22.7263 27.6608 22.3005 27.8625 21.7403L35.7286 0.0917444H27.2574V0.0693359ZM17.464 22.3902C17.9347 22.3902 18.3605 22.1437 18.6294 21.7851C18.6518 21.7403 18.7414 21.6058 18.8087 21.4265L21.6996 13.4932L20.0188 8.85425C19.7947 8.33881 19.3017 7.98024 18.6966 7.98024C18.226 7.98024 17.8002 8.22675 17.5313 8.58532C17.5089 8.63014 17.3968 8.78701 17.352 8.94389L14.461 16.8772L16.1642 21.5386C16.3883 22.0316 16.8814 22.3902 17.464 22.3902ZM9.68761 7.64408H18.0915C17.464 7.66649 16.9486 8.06988 16.7469 8.63014L8.88083 30.2787H0.409668L8.27575 8.63014C8.47744 8.04747 9.0377 7.64408 9.68761 7.64408Z" fill="#A6A6A6"/>
</svg>
